<?xml version="1.0" encoding="utf-8"?>
<svg xmlns="http://www.w3.org/2000/svg" width="500" height="500" viewBox="0 0 100 100">
  <path fill="#c7ede6" d="M87.215,56.711C88.352,54.555,89,52.105,89,49.5c0-6.621-4.16-12.258-10-14.477c0-0.008,0-0.016,0-0.023c0-11.598-9.402-21-21-21c-9.785,0-17.98,6.699-20.313,15.758C36.211,29.273,34.637,29,33,29c-7.691,0-14.023,5.793-14.891,13.254C12.906,43.352,9,47.969,9,53.5C9,59.852,14.148,65,20.5,65c0.176,0,0.352-0.012,0.527-0.023C21.023,65.152,21,65.324,21,65.5C21,76.82,30.18,86,41.5,86c6.437,0,12.176-2.973,15.934-7.613C59.613,80.609,62.641,82,66,82c4.648,0,8.676-2.648,10.664-6.52C77.719,75.816,78.836,76,80,76c6.074,0,11-4.926,11-11C91,61.688,89.531,58.727,87.215,56.711z" />
  <path fill="#fdfcef" d="M54.792,38.5c0,0-3.641,0-6.125,0s-4.5-2.016-4.5-4.5c0-2.332,1.781-4.23,4.055-4.453c-0.023-0.184-0.055-0.359-0.055-0.547c0-2.484,2.016-4.5,4.5-4.5c1.438,0,2.703,0.688,3.527,1.734c0.141-2.633,2.301-4.734,4.973-4.734c2.762,0,5,2.238,5,5c0,0.445-0.078,0.871-0.188,1.281c0.641-0.777,1.602-1.281,2.688-1.281c1.781,0,3.234,1.336,3.453,3.055c0.184-0.023,0.359-0.055,0.547-0.055c2.484,0,4.5,2.016,4.5,4.5s-2.016,4.5-4.5,4.5s-9.5,0-9.5,0h-5.375V39h-3V38.5z" />
  <path fill="#472b29" d="M61.167,20.907c3.031,0,5.5,2.469,5.5,5.5c0,0.016,0,0.031,0,0.047c0.602-0.355,1.289-0.547,2-0.547c1.832,0,3.41,1.262,3.859,3.004c0.047,0,0.094-0.004,0.141-0.004c2.758,0,5,2.242,5,5s-2.242,5-5,5H57.792c-0.277,0-0.5-0.223-0.5-0.5s0.223-0.5,0.5-0.5h14.875c2.207,0,4-1.793,4-4s-1.793-4-4-4c-0.117,0-0.23,0.016-0.344,0.031l-0.141,0.02c-0.02,0.004-0.039,0.004-0.063,0.004c-0.246,0-0.461-0.184-0.492-0.438c-0.191-1.492-1.465-2.617-2.961-2.617c-0.887,0-1.723,0.402-2.301,1.102c-0.098,0.117-0.242,0.18-0.387,0.18c-0.078,0-0.156-0.016-0.227-0.055c-0.211-0.109-0.316-0.348-0.254-0.574c0.113-0.434,0.168-0.801,0.168-1.152c0-2.48-2.02-4.5-4.5-4.5c-2.383,0-4.348,1.871-4.473,4.262c-0.012,0.211-0.152,0.387-0.352,0.453c-0.047,0.016-0.102,0.023-0.152,0.023c-0.148,0-0.293-0.07-0.391-0.191c-0.77-0.984-1.91-1.547-3.133-1.547c-2.207,0-4,1.793-4,4c0,0.117,0.016,0.23,0.031,0.344l0.02,0.141c0.016,0.133-0.023,0.27-0.105,0.371c-0.086,0.105-0.207,0.172-0.34,0.188c-2.055,0.203-3.605,1.906-3.605,3.957c0,2.207,1.793,4,4,4h6.125c0.277,0,0.5,0.223,0.5,0.5s-0.223,0.5-0.5,0.5h-6.125c-2.758,0-5-2.242-5-5c0-2.398,1.688-4.414,4.004-4.879c-0.004-0.039-0.004-0.082-0.004-0.121c0-2.758,2.242-5,5-5c1.176,0,2.293,0.414,3.184,1.164C56.448,22.668,58.612,20.907,61.167,20.907z" />
  <path fill="#ee3e54" d="M21.754,63.3c-0.454,0-0.823-0.378-0.823-0.843V59.98c0-0.314,0.17-0.602,0.444-0.748l0.37-0.198v-9.503c0-1.605,1.13-2.979,2.687-3.265l6.518-0.953c0.876-0.128,1.62-0.689,1.989-1.5l2.497-5.479c1.037-2.276,3.318-3.634,6.101-3.634h15.599c2.576,0,4.727,0.949,6.055,2.674l5.299,6.882c0.345,0.446,0.829,0.772,1.365,0.919l9.953,2.862c2.06,0.571,3.493,2.502,3.493,4.7v6.298l0.37,0.197c0.246,0.132,0.494,0.414,0.494,0.748v2.477c0,0.465-0.369,0.843-0.823,0.843H21.754z" />
  <path fill="#f4989e" d="M22.375,53.719l0.047-2.944h3.185c0.445,0,0.805,0.361,0.805,0.805v1.611 c0,0.445-0.361,0.805-0.805,0.805h-3.222L22.375,53.719z" />
  <path fill="#472b29" d="M25.607,54.496h-3.222v-1h3.222c0.169,0,0.306-0.137,0.306-0.305V51.58 c0-0.169-0.137-0.306-0.306-0.306h-3.222v-1h3.222c0.72,0,1.306,0.586,1.306,1.306v1.611 C26.913,53.911,26.327,54.496,25.607,54.496z" />
  <path fill="#f4989e" d="M82.628,54.641h-2.416c-0.89,0-1.611-0.721-1.611-1.611v0c0-0.89,0.721-1.611,1.611-1.611h2.398 l0.015,3.159L82.628,54.641z" />
  <path fill="#472b29" d="M82.628,55.141h-2.416c-1.164,0-2.111-0.946-2.111-2.11s0.947-2.111,2.111-2.111h2.416v1h-2.416 c-0.612,0-1.111,0.499-1.111,1.111s0.499,1.11,1.111,1.11h2.416V55.141z" />
  <path fill="#472b29" d="M57.135,35.4c2.354,0,4.307,0.853,5.499,2.401l5.301,6.885c0.436,0.563,1.05,0.977,1.717,1.161l9.974,2.867c1.751,0.485,2.974,2.14,2.974,4.024v5.877v0.839l0.739,0.396c0.073,0.039,0.121,0.109,0.125,0.131v2.476c0,0.076-0.058,0.143-0.124,0.143H21.754c-0.066,0-0.124-0.067-0.124-0.143v-2.476c0-0.086,0.063-0.125,0.076-0.131l0.739-0.396v-0.839v-9.084c0-1.26,0.878-2.338,2.09-2.573l6.514-0.953c1.112-0.162,2.057-0.873,2.526-1.902l2.497-5.479c0.921-2.019,2.963-3.225,5.463-3.225H57.135 M57.135,34H41.536c-3.065,0-5.583,1.512-6.737,4.044l-2.497,5.479c-0.271,0.594-0.814,1.005-1.454,1.098l-6.543,0.957c-1.889,0.348-3.259,2.01-3.259,3.954v9.084c-0.484,0.259-0.815,0.773-0.815,1.366v2.476c0,0.85,0.684,1.543,1.524,1.543H83.34c0.84,0,1.524-0.692,1.524-1.543v-2.476c0-0.592-0.38-1.107-0.864-1.366v-5.877c0-2.503-1.616-4.712-4-5.373l-9.961-2.864c-0.391-0.108-0.745-0.347-0.996-0.672l-5.299-6.882C62.28,35.047,59.933,34,57.135,34L57.135,34z" />
  <circle cx="34.204" cy="63.142" r="5.638" fill="#edf7f5" />
  <path fill="#472b29" d="M34.204,69.781c-3.66,0-6.639-2.979-6.639-6.639s2.979-6.639,6.639-6.639s6.638,2.979,6.638,6.639 S37.864,69.781,34.204,69.781z M34.204,58.504c-2.558,0-4.639,2.081-4.639,4.639s2.081,4.639,4.639,4.639s4.638-2.081,4.638-4.639 S36.762,58.504,34.204,58.504z" />
  <circle cx="71.257" cy="63.142" r="5.638" fill="#edf7f5" />
  <path fill="#472b29" d="M71.257,69.781c-3.66,0-6.639-2.979-6.639-6.639s2.979-6.639,6.639-6.639s6.638,2.979,6.638,6.639 S74.917,69.781,71.257,69.781z M71.257,58.504c-2.558,0-4.639,2.081-4.639,4.639s2.081,4.639,4.639,4.639s4.638-2.081,4.638-4.639 S73.814,58.504,71.257,58.504z" />
  <path fill="#ee3e54" d="M34.206,65.762L34.206,65.762c-1.015,0-1.946-0.594-2.375-1.513 c-0.61-1.309-0.042-2.869,1.267-3.479c0.35-0.163,0.721-0.246,1.104-0.246c1.014,0,1.945,0.594,2.374,1.513 c0.296,0.634,0.326,1.345,0.088,2.002c-0.239,0.657-0.721,1.182-1.354,1.478C34.96,65.679,34.589,65.762,34.206,65.762z" />
  <path fill="#ee3e54" d="M71.355,65.751c-0.778,0-1.53-0.354-2.011-0.947c-0.592-0.729-0.757-1.682-0.443-2.545 c0.316-0.87,1.063-1.498,1.994-1.679c0.909-0.179,1.907,0.186,2.488,0.901c0.591,0.729,0.757,1.682,0.442,2.545 c-0.316,0.87-1.063,1.498-1.994,1.679C71.677,65.735,71.516,65.751,71.355,65.751z" />
  <path fill="#472b29" d="M25.208,60h-3.5c-0.387,0-0.7-0.313-0.7-0.7s0.313-0.7,0.7-0.7h3.5c0.387,0,0.7,0.313,0.7,0.7 S25.595,60,25.208,60z" />
  <path fill="#472b29" d="M83.841,60h-3c-0.387,0-0.7-0.313-0.7-0.7s0.313-0.7,0.7-0.7h3c0.387,0,0.7,0.313,0.7,0.7 S84.228,60,83.841,60z" />
  <path fill="#472b29" d="M32.395,44.783c-0.199,0-0.397-0.085-0.536-0.25l-5.214-6.208c-0.778-0.951-2.111-1.208-3.18-0.617 L21.4,39.039c-0.328,0.208-0.76,0.114-0.968-0.21c-0.209-0.325-0.115-0.758,0.21-0.968l2.104-1.354 c1.7-0.941,3.773-0.543,4.976,0.925l5.208,6.201c0.248,0.296,0.21,0.738-0.086,0.986C32.714,44.729,32.554,44.783,32.395,44.783z" />
  <path fill="#77cbd2" d="M64.065,47.158H52.261c-0.848,0-1.538-0.67-1.538-1.495v-6.533c0-0.824,0.69-1.494,1.538-1.494h6.54 c0.576,0,1.109,0.252,1.465,0.692l5.026,6.432c0.354,0.453,0.415,1.029,0.165,1.542C65.199,46.831,64.666,47.158,64.065,47.158z" />
  <path fill="#77cbd2" d="M47.105,47.158H36.929c-0.54,0-1.031-0.267-1.313-0.714c-0.269-0.427-0.3-0.954-0.083-1.408 l3.115-6.533c0.252-0.526,0.8-0.866,1.396-0.866h7.062c0.849,0,1.539,0.67,1.539,1.494v6.533 C48.645,46.488,47.954,47.158,47.105,47.158z" />
  <path fill="#472b29" d="M74.654,49.986h-8.059c-0.276,0-0.5-0.224-0.5-0.5s0.224-0.5,0.5-0.5h8.059 c0.276,0,0.5,0.224,0.5,0.5S74.931,49.986,74.654,49.986z M64.596,49.986h-0.5c-0.276,0-0.5-0.224-0.5-0.5s0.224-0.5,0.5-0.5h0.5 c0.276,0,0.5,0.224,0.5,0.5S64.872,49.986,64.596,49.986z M62.096,49.986h-2c-0.276,0-0.5-0.224-0.5-0.5s0.224-0.5,0.5-0.5h2 c0.276,0,0.5,0.224,0.5,0.5S62.372,49.986,62.096,49.986z M58.096,49.986h-30c-0.276,0-0.5-0.224-0.5-0.5s0.224-0.5,0.5-0.5h30 c0.276,0,0.5,0.224,0.5,0.5S58.372,49.986,58.096,49.986z" />
  <path fill="#472b29" d="M54.084,59.563h-2c-0.138,0-0.25-0.112-0.25-0.25s0.112-0.25,0.25-0.25h2 c0.138,0,0.25,0.112,0.25,0.25S54.222,59.563,54.084,59.563z M50.084,59.563h-10c-0.138,0-0.25-0.112-0.25-0.25 s0.112-0.25,0.25-0.25h10c0.138,0,0.25,0.112,0.25,0.25S50.222,59.563,50.084,59.563z" />
  <path fill="#472b29" d="M49.684,61.842c-0.138,0-0.25-0.112-0.25-0.25v-0.5c0-0.138,0.112-0.25,0.25-0.25 s0.25,0.112,0.25,0.25v0.5C49.934,61.73,49.821,61.842,49.684,61.842z M49.684,59.342c-0.138,0-0.25-0.112-0.25-0.25v-2 c0-0.138,0.112-0.25,0.25-0.25s0.25,0.112,0.25,0.25v2C49.934,59.23,49.821,59.342,49.684,59.342z M49.684,55.342 c-0.138,0-0.25-0.112-0.25-0.25v-4c0-0.138,0.112-0.25,0.25-0.25s0.25,0.112,0.25,0.25v4C49.934,55.23,49.821,55.342,49.684,55.342 z" />
  <path fill="#472b29" d="M34.206,65.762c-0.151,0-0.302-0.013-0.451-0.039c-0.136-0.023-0.227-0.153-0.203-0.289 c0.023-0.135,0.146-0.232,0.289-0.203c0.292,0.051,0.596,0.039,0.886-0.035c0.137-0.032,0.271,0.047,0.305,0.18 c0.034,0.134-0.046,0.271-0.18,0.305C34.64,65.734,34.423,65.762,34.206,65.762z M32.876,65.354c-0.049,0-0.097-0.014-0.14-0.043 c-0.393-0.265-0.705-0.633-0.905-1.063c-0.163-0.35-0.246-0.722-0.246-1.105c0-1.014,0.594-1.946,1.513-2.374 c0.124-0.058,0.273-0.004,0.332,0.121s0.004,0.273-0.121,0.332c-0.743,0.347-1.224,1.101-1.224,1.921 c0,0.311,0.067,0.611,0.199,0.895c0.162,0.348,0.415,0.645,0.731,0.859c0.115,0.077,0.145,0.232,0.067,0.347 C33.035,65.316,32.956,65.354,32.876,65.354z M35.678,65.246c-0.073,0-0.146-0.032-0.195-0.095 c-0.086-0.107-0.068-0.265,0.04-0.351c0.501-0.398,0.8-1.019,0.8-1.659c0-0.311-0.067-0.611-0.199-0.895 c-0.235-0.506-0.653-0.893-1.176-1.088c-0.129-0.049-0.194-0.192-0.146-0.322c0.049-0.13,0.19-0.195,0.322-0.146 c0.646,0.242,1.162,0.72,1.453,1.346c0.163,0.35,0.246,0.722,0.246,1.105c0,0.792-0.37,1.559-0.989,2.05 C35.787,65.229,35.732,65.246,35.678,65.246z" />
  <path fill="#472b29" d="M71.366,65.751c-0.373-0.001-0.739-0.08-1.073-0.228c-0.126-0.056-0.183-0.204-0.127-0.33 s0.204-0.183,0.33-0.127c0.271,0.12,0.567,0.184,0.86,0.185c0.138,0,0.255,0.112,0.255,0.25 C71.61,65.64,71.504,65.751,71.366,65.751z M72.335,65.537c-0.096,0-0.187-0.055-0.229-0.147c-0.056-0.127,0-0.274,0.126-0.331 c0.76-0.34,1.251-1.093,1.251-1.919c0-0.486-0.169-0.95-0.488-1.344c-0.122-0.15-0.268-0.283-0.433-0.395 c-0.114-0.077-0.145-0.232-0.067-0.347c0.076-0.114,0.231-0.146,0.347-0.067c0.206,0.139,0.388,0.305,0.542,0.494 c0.393,0.482,0.6,1.056,0.6,1.658c0,1.023-0.607,1.955-1.546,2.376C72.404,65.53,72.369,65.537,72.335,65.537z M69.549,64.943 c-0.055,0-0.107-0.022-0.149-0.074l-0.055-0.065c-0.392-0.484-0.599-1.058-0.599-1.659c0-1.264,0.884-2.318,2.149-2.564 c0.14-0.026,0.268,0.063,0.293,0.197c0.026,0.136-0.062,0.267-0.197,0.293c-1.027,0.2-1.745,1.053-1.745,2.074 c0,0.485,0.169,0.95,0.487,1.345c0.087,0.107,0.098,0.297-0.01,0.384C69.669,64.918,69.607,64.943,69.549,64.943z" />
  <path fill="#472b29" d="M62.667,27.907c1.402,0,2.609,1,2.914,2.34c0.367-0.223,0.785-0.34,1.211-0.34c1.203,0,2.199,0.898,2.352,2.066c0.203-0.043,0.398-0.066,0.586-0.066c1.531,0,2.813,1.199,2.918,2.73c0.008,0.141-0.094,0.258-0.23,0.27c-0.008,0-0.012,0-0.02,0c-0.129,0-0.238-0.102-0.25-0.23c-0.086-1.273-1.148-2.27-2.418-2.27c-0.227,0-0.469,0.043-0.738,0.129c-0.02,0.004-0.043,0.008-0.066,0.008c-0.055,0-0.109-0.02-0.156-0.055c-0.063-0.047-0.102-0.129-0.102-0.207c0-1.035-0.84-1.875-1.875-1.875c-0.445,0-0.887,0.168-1.23,0.473c-0.047,0.043-0.105,0.063-0.164,0.063c-0.035,0-0.066-0.004-0.094-0.02c-0.09-0.035-0.148-0.117-0.156-0.211c-0.102-1.293-1.191-2.305-2.48-2.305c-0.207,0-0.426,0.035-0.684,0.105c-0.02,0.008-0.047,0.012-0.07,0.012c-0.105,0-0.207-0.074-0.238-0.184c-0.035-0.133,0.039-0.27,0.172-0.309C62.151,27.946,62.409,27.907,62.667,27.907z M48.784,29.407c1.324,0,2.508,0.898,2.875,2.184c0.035,0.133-0.039,0.27-0.172,0.309c-0.023,0.004-0.047,0.008-0.07,0.008c-0.109,0-0.211-0.07-0.238-0.184c-0.309-1.07-1.289-1.816-2.395-1.816c-0.117,0-0.23,0.016-0.344,0.027c-0.012,0.004-0.02,0.004-0.035,0.004c-0.121,0-0.227-0.09-0.246-0.215c-0.016-0.137,0.078-0.266,0.215-0.281C48.51,29.422,48.643,29.407,48.784,29.407z" />
  <path fill="#fff" d="M83.073,42h-9.906c-0.277,0-0.5-0.223-0.5-0.5s0.223-0.5,0.5-0.5h9.906c0.273,0,0.5,0.223,0.5,0.5S83.35,42,83.073,42z M86.167,42h-1c-0.277,0-0.5-0.223-0.5-0.5s0.223-0.5,0.5-0.5h1c0.277,0,0.5,0.223,0.5,0.5S86.444,42,86.167,42z M91.159,44h-8.992c-0.277,0-0.5-0.223-0.5-0.5s0.223-0.5,0.5-0.5h8.992c0.273,0,0.5,0.223,0.5,0.5S91.432,44,91.159,44z M80.167,44h-1c-0.277,0-0.5-0.223-0.5-0.5s0.223-0.5,0.5-0.5h1c0.277,0,0.5,0.223,0.5,0.5S80.444,44,80.167,44z M77.167,44h-2c-0.277,0-0.5-0.223-0.5-0.5s0.223-0.5,0.5-0.5h2c0.277,0,0.5,0.223,0.5,0.5S77.444,44,77.167,44z M83.167,46h-2c-0.277,0-0.5-0.223-0.5-0.5s0.223-0.5,0.5-0.5h2c0.277,0,0.5,0.223,0.5,0.5S83.444,46,83.167,46z M86.167,37c-0.176,0-0.824,0-1,0c-0.277,0-0.5,0.223-0.5,0.5s0.223,0.5,0.5,0.5c0.176,0,0.824,0,1,0c0.277,0,0.5-0.223,0.5-0.5S86.444,37,86.167,37z M86.167,39c-0.176,0-4.824,0-5,0c-0.277,0-0.5,0.223-0.5,0.5s0.223,0.5,0.5,0.5c0.176,0,4.824,0,5,0c0.277,0,0.5-0.223,0.5-0.5S86.444,39,86.167,39z M91.167,41c-0.176,0-2.824,0-3,0c-0.277,0-0.5,0.223-0.5,0.5s0.223,0.5,0.5,0.5c0.176,0,2.824,0,3,0c0.277,0,0.5-0.223,0.5-0.5S91.444,41,91.167,41z" />
  <path fill="#fff" d="M29.167,77h-10c-0.277,0-0.5-0.223-0.5-0.5s0.223-0.5,0.5-0.5h10c0.277,0,0.5,0.223,0.5,0.5S29.444,77,29.167,77z M32.167,77h-1c-0.277,0-0.5-0.223-0.5-0.5s0.223-0.5,0.5-0.5h1c0.277,0,0.5,0.223,0.5,0.5S32.444,77,32.167,77z M37.159,79h-8.992c-0.277,0-0.5-0.223-0.5-0.5s0.223-0.5,0.5-0.5h8.992c0.273,0,0.5,0.223,0.5,0.5S37.432,79,37.159,79z M26.167,79h-1c-0.277,0-0.5-0.223-0.5-0.5s0.223-0.5,0.5-0.5h1c0.277,0,0.5,0.223,0.5,0.5S26.444,79,26.167,79z M23.167,79h-2c-0.277,0-0.5-0.223-0.5-0.5s0.223-0.5,0.5-0.5h2c0.277,0,0.5,0.223,0.5,0.5S23.444,79,23.167,79z M29.167,81h-2c-0.277,0-0.5-0.223-0.5-0.5s0.223-0.5,0.5-0.5h2c0.277,0,0.5,0.223,0.5,0.5S29.444,81,29.167,81z M32.167,72c-0.176,0-0.824,0-1,0c-0.277,0-0.5,0.223-0.5,0.5s0.223,0.5,0.5,0.5c0.176,0,0.824,0,1,0c0.277,0,0.5-0.223,0.5-0.5S32.444,72,32.167,72z M32.167,74c-0.176,0-4.824,0-5,0c-0.277,0-0.5,0.223-0.5,0.5s0.223,0.5,0.5,0.5c0.176,0,4.824,0,5,0c0.277,0,0.5-0.223,0.5-0.5S32.444,74,32.167,74z M37.167,76c-0.176,0-2.824,0-3,0c-0.277,0-0.5,0.223-0.5,0.5s0.223,0.5,0.5,0.5c0.176,0,2.824,0,3,0c0.277,0,0.5-0.223,0.5-0.5S37.444,76,37.167,76z" />
  <path fill="#472b29" d="M76.586,62.978c-0.13,0-0.237-0.107-0.237-0.237c0-0.415-0.118-0.814-0.344-1.162c-0.07-0.111-0.041-0.255,0.07-0.329c0.107-0.07,0.255-0.037,0.329,0.07c0.274,0.422,0.418,0.914,0.418,1.421C76.823,62.871,76.715,62.978,76.586,62.978z" />
  <path fill="#472b29" d="M38.167,70h-14c-0.277,0-0.5-0.223-0.5-0.5s0.223-0.5,0.5-0.5h14c0.277,0,0.5,0.223,0.5,0.5S38.444,70,38.167,70z" />
  <path fill="#472b29" d="M81.167,70h-32c-0.277,0-0.5-0.223-0.5-0.5s0.223-0.5,0.5-0.5h32c0.277,0,0.5,0.223,0.5,0.5S81.444,70,81.167,70z" />
  <path fill="#472b29" d="M46.167,70h-5c-0.277,0-0.5-0.223-0.5-0.5s0.223-0.5,0.5-0.5h5c0.277,0,0.5,0.223,0.5,0.5S46.444,70,46.167,70z" />
  <g>
    <path fill="#fdfcef" d="M65.553,72.5c0,0,1.566,0,3.5,0s3.5-1.566,3.5-3.5c0-1.781-1.336-3.234-3.055-3.453 c0.027-0.18,0.055-0.359,0.055-0.547c0-1.934-1.566-3.5-3.5-3.5c-1.031,0-1.949,0.453-2.59,1.164 c-0.383-1.809-1.988-3.164-3.91-3.164c-2.211,0-4,1.789-4,4c0,0.191,0.031,0.375,0.055,0.559c-0.426-0.344-0.961-0.559-1.555-0.559 c-1.227,0-2.246,0.887-2.453,2.055c-0.18-0.027-0.359-0.055-0.547-0.055c-1.934,0-3.5,1.566-3.5,3.5s1.566,3.5,3.5,3.5s7.5,0,7.5,0 V73h7V72.5z" />
    <path fill="#472b29" d="M67.303,68c-0.137,0-0.25-0.113-0.25-0.25c0-1.223,0.996-2.219,2.219-2.219 c0.035,0.008,0.734,0,1.242,0.137c0.133,0.035,0.215,0.172,0.176,0.305c-0.035,0.137-0.172,0.215-0.305,0.176 c-0.445-0.117-1.102-0.117-1.113-0.117c-0.949,0-1.719,0.773-1.719,1.719C67.553,67.887,67.439,68,67.303,68z M60.553,72 c-0.277,0-0.5,0.223-0.5,0.5s0.223,0.5,0.5,0.5s0.5-0.223,0.5-0.5S60.83,72,60.553,72z" />
    <path fill="#472b29" d="M69.053,73h-3.5c-0.277,0-0.5-0.223-0.5-0.5s0.223-0.5,0.5-0.5h3.5c1.652,0,3-1.348,3-3 c0-1.496-1.125-2.77-2.617-2.961c-0.137-0.016-0.254-0.086-0.336-0.195c-0.082-0.105-0.117-0.242-0.094-0.375 c0.023-0.156,0.047-0.309,0.047-0.469c0-1.652-1.348-3-3-3c-0.852,0-1.637,0.355-2.219,1c-0.125,0.141-0.32,0.199-0.5,0.148 c-0.184-0.051-0.32-0.195-0.359-0.379C62.631,61.164,61.193,60,59.553,60c-1.93,0-3.5,1.57-3.5,3.5c0,0.145,0.02,0.281,0.039,0.418 c0.031,0.203-0.063,0.438-0.238,0.539c-0.18,0.102-0.398,0.117-0.559-0.008C54.932,64.156,54.502,64,54.053,64 c-0.965,0-1.793,0.691-1.965,1.645c-0.047,0.266-0.293,0.445-0.566,0.406C51.365,66.023,51.213,66,51.053,66c-1.652,0-3,1.348-3,3 s1.348,3,3,3h7.5c0.277,0,0.5,0.223,0.5,0.5s-0.223,0.5-0.5,0.5h-7.5c-2.207,0-4-1.793-4-4s1.793-4,4-4 c0.059,0,0.117,0.004,0.176,0.008C51.642,63.82,52.764,63,54.053,63c0.348,0,0.688,0.063,1.012,0.18 c0.164-2.332,2.113-4.18,4.488-4.18c1.832,0,3.465,1.129,4.152,2.773C64.385,61.277,65.209,61,66.053,61c2.207,0,4,1.793,4,4 c0,0.047,0,0.094-0.004,0.141c1.742,0.449,3.004,2.027,3.004,3.859C73.053,71.207,71.26,73,69.053,73z" />
    <path fill="#472b29" d="M63.553,72c-0.16,0-0.84,0-1,0c-0.277,0-0.5,0.223-0.5,0.5s0.223,0.5,0.5,0.5c0.16,0,0.84,0,1,0 c0.277,0,0.5-0.223,0.5-0.5S63.83,72,63.553,72z" />
  </g>
  <g>
    <path fill="#f4989e" d="M56.4,53L56.4,53c0-0.55-0.45-1-1-1h-2.8c-0.55,0-1,0.45-1,1l0,0c0,0.55,0.45,1,1,1h2.8 C55.95,54,56.4,53.55,56.4,53z" />
    <path fill="#472b29" d="M55.4,52h-2.8c-0.55,0-1,0.45-1,1s0.45,1,1,1h0.06c0.138,0,0.25-0.112,0.25-0.25 s-0.112-0.25-0.25-0.25H52.6c-0.276,0-0.5-0.224-0.5-0.5s0.224-0.5,0.5-0.5h2.8c0.138,0,0.25-0.112,0.25-0.25S55.538,52,55.4,52 L55.4,52L55.4,52z M56.114,52.978c-0.106,0-0.204,0.067-0.238,0.173C55.81,53.357,55.614,53.5,55.4,53.5h-0.74 c-0.138,0-0.25,0.112-0.25,0.25S54.522,54,54.66,54h0.74c0.001,0,0.002,0,0.002,0c0,0,0,0,0,0c0.001,0,0.002,0,0.002,0c0,0,0,0,0,0 c0.001,0,0.001,0,0.002,0c0,0,0,0,0,0c0.001,0,0.002,0,0.002,0c0,0,0,0,0.001,0c0.001,0,0.001,0,0.002,0c0,0,0,0,0,0 c0.001,0,0.001,0,0.002,0c0,0,0,0,0,0c0.001,0,0.001,0,0.002,0c0,0,0,0,0,0c0.001,0,0.001,0,0.002,0c0,0,0,0,0,0 c0.001,0,0.002,0,0.002,0c0,0,0,0,0,0c0.001,0,0.002,0,0.002,0c0,0,0,0,0,0c0.001,0,0.001,0,0.002,0c0,0,0,0,0,0 c0.001,0,0.002,0,0.002,0c0,0,0,0,0.001,0c0.001,0,0.001,0,0.002,0c0,0,0,0,0,0c0.001,0,0.002,0,0.002,0c0,0,0,0,0,0 c0.001,0,0.002,0,0.002,0c0,0,0,0,0,0c0.001,0,0.001,0,0.002,0c0,0,0,0,0,0c0.001,0,0.001,0,0.002,0c0,0,0,0,0,0 c0.001,0,0.001,0,0.002,0c0,0,0,0,0,0c0.001,0,0.001,0,0.002,0c0,0,0,0,0,0c0.001,0,0.002,0,0.002,0c0,0,0,0,0,0 c0.001,0,0.001,0,0.002,0c0,0,0,0,0,0c0.001,0,0.002,0,0.002,0c0,0,0,0,0,0c0.001,0,0.002,0,0.002,0c0,0,0,0,0,0 c0.001,0,0.001,0,0.002,0c0,0,0,0,0,0c0.001,0,0.001,0,0.002,0c0,0,0,0,0,0c0.001,0,0.001,0,0.002,0c0,0,0,0,0,0 c0.001,0,0.001,0,0.002,0c0,0,0,0,0.001,0c0.001,0,0.001,0,0.002,0c0,0,0,0,0,0c0.001,0,0.001,0,0.002,0c0,0,0,0,0,0 c0.001,0,0.002,0,0.002,0c0,0,0,0,0,0c0.002,0,0.003,0,0.005,0c0,0,0,0,0,0c0.001,0,0.001,0,0.002,0c0,0,0,0,0,0 c0.001,0,0.001,0,0.002,0c0,0,0,0,0,0c0.001,0,0.002,0,0.002,0c0,0,0,0,0,0c0.001,0,0.002,0,0.002,0c0,0,0,0,0,0 c0.001,0,0.002,0,0.002,0c0,0,0,0,0,0c0.001,0,0.002,0,0.002,0c0,0,0,0,0,0c0.002,0,0.003,0,0.005,0c0,0,0,0,0,0 c0.001,0,0.002,0,0.002,0c0,0,0,0,0,0c0.001,0,0.002,0,0.002,0c0,0,0,0,0,0c0.001,0,0.002,0,0.002,0c0,0,0,0,0,0 c0.002,0,0.003,0,0.005-0.001c0,0,0,0,0,0c0.001,0,0.002,0,0.002,0c0,0,0,0,0,0c0.001,0,0.002,0,0.003,0l0,0 c0.001,0,0.002,0,0.002,0c0,0,0,0,0,0c0.002,0,0.003,0,0.005-0.001c0,0,0,0,0,0c0.001,0,0.002,0,0.002,0c0,0,0,0,0,0 c0.002,0,0.003,0,0.005-0.001c0,0,0,0,0,0c0.002,0,0.003,0,0.005-0.001l0,0c0.001,0,0.002,0,0.002,0c0,0,0,0,0,0 c0.002,0,0.003,0,0.005-0.001c0,0,0,0,0,0c0.002,0,0.005-0.001,0.007-0.001l0,0c0.002,0,0.003-0.001,0.005-0.001c0,0,0,0,0,0 c0.001,0,0.002,0,0.002,0c0,0,0,0,0,0c0.002,0,0.003-0.001,0.005-0.001c0,0,0,0,0,0c0.369-0.063,0.671-0.331,0.784-0.681 c0.042-0.131-0.03-0.272-0.161-0.315C56.165,52.982,56.14,52.978,56.114,52.978L56.114,52.978z" />
  </g>
  <g>
    <path fill="#472b29" d="M64.065,47.158h-5.305c-0.138,0-0.25-0.112-0.25-0.25s0.112-0.25,0.25-0.25h5.305 c0.644,0,1.042-0.519,1.042-1c0-0.211-0.072-0.415-0.21-0.59l-5.023-6.429c-0.257-0.318-0.649-0.503-1.073-0.503h-6.54 c-0.572,0-1.038,0.446-1.038,0.994v6.533c0,0.548,0.466,0.995,1.038,0.995h0.5c0.138,0,0.25,0.112,0.25,0.25s-0.112,0.25-0.25,0.25 h-0.5c-0.848,0-1.538-0.67-1.538-1.495v-6.533c0-0.824,0.69-1.494,1.538-1.494h6.54c0.576,0,1.109,0.252,1.465,0.692l5.026,6.432 c0.206,0.264,0.315,0.574,0.315,0.898C65.607,46.485,64.916,47.158,64.065,47.158z M56.761,47.158h-2 c-0.138,0-0.25-0.112-0.25-0.25s0.112-0.25,0.25-0.25h2c0.138,0,0.25,0.112,0.25,0.25S56.898,47.158,56.761,47.158z" />
  </g>
  <g>
    <path fill="#472b29" d="M47.105,47.158H36.929c-0.54,0-1.031-0.267-1.313-0.714c-0.269-0.427-0.3-0.954-0.083-1.408 l3.115-6.533c0.252-0.526,0.8-0.866,1.396-0.866h7.062c0.849,0,1.539,0.67,1.539,1.494v6.533 C48.645,46.488,47.954,47.158,47.105,47.158z M40.044,38.137c-0.405,0-0.776,0.228-0.945,0.582l-3.115,6.533 c-0.145,0.304-0.125,0.641,0.056,0.926c0.189,0.301,0.522,0.481,0.89,0.481h10.177c0.573,0,1.039-0.446,1.039-0.995v-6.533 c0-0.548-0.466-0.994-1.039-0.994H40.044z" />
  </g>
</svg>