<?xml version="1.0" encoding="utf-8"?>
<svg xmlns="http://www.w3.org/2000/svg" width="256" height="256" data-name="Слой 1" viewBox="0 0 48 48">
  <defs>
    <linearGradient id="Ged3NlmFQyngzlACVn806a" x1="5.22" x2="44.56" y1="17.256" y2="17.256" data-name="Безымянный градиент 465" gradientUnits="userSpaceOnUse">
      <stop offset=".004" stop-opacity=".5" />
      <stop offset=".039" stop-color="#000106" stop-opacity=".5" />
      <stop offset=".096" stop-color="#000413" stop-opacity=".13" />
      <stop offset=".161" stop-color="#000518" stop-opacity="0" />
      <stop offset=".374" stop-color="#000518" stop-opacity="0" />
      <stop offset=".429" stop-color="#00020a" stop-opacity=".12" />
      <stop offset=".491" stop-color="#000002" stop-opacity=".4" />
      <stop offset=".557" stop-opacity=".4" />
      <stop offset=".617" stop-color="#000106" stop-opacity=".19" />
      <stop offset=".715" stop-color="#000518" stop-opacity="0" />
      <stop offset=".83" stop-color="#000518" stop-opacity=".018" />
      <stop offset=".895" stop-color="#000416" stop-opacity=".164" />
      <stop offset=".943" stop-color="#00030f" stop-opacity=".271" />
      <stop offset=".985" stop-color="#000104" stop-opacity=".5" />
      <stop offset="1" stop-opacity=".5" />
    </linearGradient>
    <linearGradient id="Ged3NlmFQyngzlACVn806b" x1="5.22" x2="44.56" y1="17.256" y2="17.256" data-name="Безымянный градиент 450" gradientUnits="userSpaceOnUse">
      <stop offset=".11" stop-color="#a5a5a5" stop-opacity="0" />
      <stop offset=".12" stop-color="#b3b3b3" stop-opacity=".047" />
      <stop offset=".146" stop-color="#d4d4d4" stop-opacity=".157" />
      <stop offset=".173" stop-color="#ececec" stop-opacity=".237" />
      <stop offset=".2" stop-color="#fafafa" stop-opacity=".284" />
      <stop offset=".227" stop-color="#fff" stop-opacity=".3" />
      <stop offset=".332" stop-color="#fafafa" stop-opacity=".207" />
      <stop offset=".465" stop-color="#f3f3f3" stop-opacity=".068" />
      <stop offset=".6" stop-color="#f8f8f8" stop-opacity=".137" />
      <stop offset=".779" stop-color="#fff" stop-opacity=".25" />
      <stop offset="1" stop-color="#eee" stop-opacity="0" />
    </linearGradient>
    <linearGradient id="Ged3NlmFQyngzlACVn806c" x1="3.085" x2="5.76" y1="25.408" y2="25.408" data-name="Безымянный градиент 280" gradientUnits="userSpaceOnUse">
      <stop offset="0" stop-color="#a8a8a8" />
      <stop offset=".009" stop-color="#9c9c9c" />
      <stop offset=".035" stop-color="gray" />
      <stop offset=".06" stop-color="#6c6c6c" />
      <stop offset=".086" stop-color="#606060" />
      <stop offset=".112" stop-color="#5c5c5c" />
      <stop offset=".342" stop-color="#fff" />
      <stop offset=".496" stop-color="#989898" />
      <stop offset=".613" stop-color="#505050" />
      <stop offset=".667" stop-color="#343434" />
      <stop offset=".813" stop-color="#7c7c7c" />
      <stop offset=".821" stop-color="#767676" />
      <stop offset=".896" stop-color="#464646" />
      <stop offset=".933" stop-color="#343434" />
    </linearGradient>
    <radialGradient id="Ged3NlmFQyngzlACVn806d" cx="20.959" cy="-175.261" r="2.149" data-name="Безымянный градиент 26" gradientTransform="rotate(90 -76.5 -94.125)" gradientUnits="userSpaceOnUse">
      <stop offset="0" stop-color="#fff" />
      <stop offset=".116" stop-color="#dfdfdf" />
      <stop offset=".393" stop-color="#989898" />
      <stop offset=".522" stop-color="#7c7c7c" />
      <stop offset=".551" stop-color="#767676" />
      <stop offset=".806" stop-color="#464646" />
      <stop offset=".933" stop-color="#343434" />
    </radialGradient>
  </defs>
  <path style="isolation:isolate" d="M44.56,6.03V28.48a24.391,24.391,0,0,1-5.61,1.17,1.548,1.548,0,0,1-.22.01q-.45.045-.9.06a32.777,32.777,0,0,1-4.43-.06c-1.85-.14-3.71-.39-5.57-.69-1.8-.29-3.61-.61-5.41-.9-1.93-.32-3.85-.59-5.77-.74-.52-.05-1.03-.08-1.55-.1-.47-.03-.94-.04-1.41-.04-.57,0-1.14.01-1.72.04-.39.02-.78.05-1.18.09a23.636,23.636,0,0,0-5.57,1.16V6.03c.23-.08.47-.15.7-.22s.46-.14.69-.2c.27-.08.54-.15.82-.21.3-.07.6-.13.91-.19a17.387,17.387,0,0,1,1.76-.27c.23-.03.46-.05.69-.07a32.77,32.77,0,0,1,5.86.01c.48.04.96.08,1.44.14s.96.11,1.44.17c.96.13,1.93.27,2.89.43,1.8.29,3.6.61,5.41.9.46.08.92.15,1.39.21.67.1,1.35.19,2.03.27.72.09,1.43.16,2.15.21a33.179,33.179,0,0,0,5.55-.01c.15-.01.3-.02.45-.04l.95-.12c.23-.03.46-.07.7-.12.23-.03.46-.08.69-.13.25-.04.49-.1.74-.16q.465-.105.93-.24c.07-.02.13-.04.2-.06C43.93,6.24,44.24,6.14,44.56,6.03Z" />
  <path fill="#fff" d="M10.79,4.87V10.3a23.636,23.636,0,0,0-5.57,1.16V6.03A23.636,23.636,0,0,1,10.79,4.87Z" />
  <path fill="#fff" d="M10.79,15.56v5.93a23.636,23.636,0,0,0-5.57,1.16V16.72A23.636,23.636,0,0,1,10.79,15.56Z" />
  <path fill="#fff" d="M16.65,10.31v5.26a31.862,31.862,0,0,0-5.86-.01V10.3A31.862,31.862,0,0,1,16.65,10.31Z" />
  <path fill="#fff" d="M16.65,21.5v5.83c-.51-.05-1.03-.08-1.55-.1-.47-.03-.94-.04-1.41-.04-.57,0-1.14.01-1.72.04-.39.02-.79.05-1.18.09V21.49A32.77,32.77,0,0,1,16.65,21.5Z" />
  <path fill="#fff" d="M22.42,5.62v5.43c-1.93-.32-3.85-.59-5.77-.74V4.88C18.57,5.03,20.49,5.31,22.42,5.62Z" />
  <path fill="#fff" d="M22.42,16.31v5.93c-1.93-.31-3.85-.59-5.77-.74V15.57C18.57,15.72,20.49,15.99,22.42,16.31Z" />
  <path fill="#fff" d="M27.83,11.95v5.26c-1.8-.29-3.61-.61-5.41-.9V11.05C24.22,11.34,26.03,11.66,27.83,11.95Z" />
  <path fill="#fff" d="M27.83,23.14v5.83c-1.8-.29-3.61-.61-5.41-.9V22.24C24.22,22.53,26.02,22.85,27.83,23.14Z" />
  <path fill="#fff" d="M33.4,7.21v5.43c-1.85-.14-3.71-.39-5.57-.69V6.52C29.68,6.82,31.54,7.07,33.4,7.21Z" />
  <path fill="#fff" d="M33.4,17.9v5.93c-1.86-.14-3.72-.39-5.57-.69V17.21C29.69,17.51,31.55,17.76,33.4,17.9Z" />
  <path fill="#fff" d="M38.95,12.63v5.26a33.179,33.179,0,0,1-5.55.01V12.64A33.179,33.179,0,0,0,38.95,12.63Z" />
  <path fill="#fff" d="M38.95,23.82v5.83a1.548,1.548,0,0,1-.22.01q-.45.045-.9.06a32.777,32.777,0,0,1-4.43-.06V23.83A33.179,33.179,0,0,0,38.95,23.82Z" />
  <path fill="#fff" d="M44.56,6.03v5.43a24.391,24.391,0,0,1-5.61,1.17V7.2A23.875,23.875,0,0,0,44.56,6.03Z" />
  <path fill="#fff" d="M44.56,16.72v5.93a23.875,23.875,0,0,1-5.61,1.17V17.89A24.391,24.391,0,0,0,44.56,16.72Z" />
  <path style="isolation:isolate" fill="url(#Ged3NlmFQyngzlACVn806a)" d="M44.56,6.03V28.48a24.391,24.391,0,0,1-5.61,1.17,1.548,1.548,0,0,1-.22.01q-.45.045-.9.06a32.777,32.777,0,0,1-4.43-.06c-1.85-.14-3.71-.39-5.57-.69-1.8-.29-3.61-.61-5.41-.9-1.93-.32-3.85-.59-5.77-.74-.51-.05-1.03-.08-1.55-.1-.47-.03-.94-.04-1.41-.04-.57,0-1.14.01-1.72.04-.39.02-.79.05-1.18.09a23.636,23.636,0,0,0-5.57,1.16V6.03c.23-.08.47-.15.7-.22s.46-.14.69-.2c.27-.08.54-.15.82-.21.3-.07.6-.13.91-.19a17.387,17.387,0,0,1,1.76-.27c.23-.03.46-.05.69-.07a32.77,32.77,0,0,1,5.86.01c.48.04.96.08,1.44.14s.96.11,1.44.17c.96.13,1.93.27,2.89.43,1.8.29,3.6.61,5.41.9.46.08.92.15,1.39.21.67.1,1.35.19,2.03.27.72.09,1.43.16,2.15.21a33.179,33.179,0,0,0,5.55-.01c.15-.01.3-.02.45-.04l.95-.12c.23-.03.46-.07.7-.12.23-.03.46-.08.69-.13.25-.04.49-.1.74-.16q.465-.105.93-.24c.07-.02.13-.04.2-.06C43.93,6.24,44.24,6.14,44.56,6.03Z" opacity=".6" />
  <path fill="url(#Ged3NlmFQyngzlACVn806b)" d="M44.56,6.03V28.48a24.391,24.391,0,0,1-5.61,1.17,1.548,1.548,0,0,1-.22.01q-.45.045-.9.06a32.777,32.777,0,0,1-4.43-.06c-1.85-.14-3.71-.39-5.57-.69-1.8-.29-3.61-.61-5.41-.9-1.93-.32-3.85-.59-5.77-.74-.52-.05-1.03-.08-1.55-.1-.47-.03-.94-.04-1.41-.04-.57,0-1.14.01-1.72.04-.39.02-.78.05-1.18.09a23.636,23.636,0,0,0-5.57,1.16V6.03c.23-.08.47-.15.7-.22s.46-.14.69-.2c.27-.08.54-.15.82-.21.3-.07.6-.13.91-.19a17.387,17.387,0,0,1,1.76-.27c.23-.03.46-.05.69-.07a32.77,32.77,0,0,1,5.86.01c.48.04.96.08,1.44.14s.96.11,1.44.17c.96.13,1.93.27,2.89.43,1.8.29,3.6.61,5.41.9.46.08.92.15,1.39.21.67.1,1.35.19,2.03.27.72.09,1.43.16,2.15.21a33.179,33.179,0,0,0,5.55-.01c.15-.01.3-.02.45-.04l.95-.12c.23-.03.46-.07.7-.12.23-.03.46-.08.69-.13.25-.04.49-.1.74-.16q.465-.105.93-.24c.07-.02.13-.04.2-.06C43.93,6.24,44.24,6.14,44.56,6.03Z" />
  <rect width="1.791" height="40.552" x="3.804" y="5.133" fill="url(#Ged3NlmFQyngzlACVn806c)" />
  <circle cx="4.7" cy="3.951" r="1.635" fill="url(#Ged3NlmFQyngzlACVn806d)" />
</svg>